<svg width="79" height="75" xmlns="http://www.w3.org/2000/svg" xmlns:xlink="http://www.w3.org/1999/xlink"><defs><path d="M53.076 22.06c1.616-.936 3.234-1.867 4.85-2.8.38-.22.739-.462 1.015-.812.582-.735.521-1.444-.213-2.029-1.442-1.15-3.072-1.37-4.827-.94-.93.227-1.718.748-2.53 1.215-3.19 1.836-5.293 2.914-8.477 4.759-.18.104-.327.154-.525.039-1.756-1.02-3.515-2.034-5.33-3.081.548-.325 1.053-.63 1.564-.925 3.105-1.791 5.127-2.818 8.233-4.607.381-.22.73-.475 1.018-.813.601-.708.548-1.445-.184-2.027-1.633-1.299-3.456-1.436-5.366-.78-1.127.387-2.093 1.105-3.12 1.692-2.875 1.644-5.755 3.28-8.598 4.977-1.845 1.101-2.886 2.736-2.886 4.945 0 5.201.005 10.403-.004 15.604-.002 1.417-.222 2.802-.85 4.088-.975 2-2.655 2.751-4.817 2.126-2.433-.704-4.434-2.116-6.189-3.905-.7-.712-1.307-1.5-1.853-2.336-.067-.103-.092-.277-.322-.193-1.302.482-2.558.194-3.768-.321-3.333-1.418-5.859-3.749-7.596-6.913C.781 26.253-.019 23.29 0 20.106.032 14.877-.02 9.648.025 4.42.04 2.514 1.119 1.136 2.614.055c.098-.071.186-.073.297-.008C4.668 1.067 6.426 2.082 8.183 3.1c.033.018.051.06.088.106-.866.601-1.589 1.33-2.089 2.26a5.049 5.049 0 00-.623 2.429c.003 5.338-.002 10.676.002 16.014.002 2.171 1.411 4.347 3.27 5.072 1.146.448 1.928.01 2.146-1.201a6.19 6.19 0 00.098-1.097c-.006-5.174-.003-10.348-.005-15.522 0-2.014.977-3.493 2.535-4.656.123-.092.232-.152.402-.052 1.731 1.008 3.468 2.007 5.202 3.01.045.025.08.07.14.125-.725.518-1.354 1.109-1.837 1.846a5.298 5.298 0 00-.891 2.968c.001 5.256-.003 10.512.002 15.769.002 2.328 1.415 4.507 3.386 5.246.974.365 1.653.038 1.965-.962.105-.338.158-.686.158-1.045-.004-5.215.006-10.43-.007-15.645-.006-2.26 1.015-3.947 2.903-5.067A660.104 660.104 0 0136.004 6.36c1.588-.9 3.33-1.413 5.12-1.741 3.16-.578 6.272-.433 9.286.758 2.059.813 3.944 1.915 5.507 3.515.288.294.578.598.74.971.155.355.407.44.746.508 3.493.697 6.597 2.197 9.272 4.559.442.39.803.853 1.104 1.362.76 1.284.596 2.677-.44 3.753-.324.336-.689.62-1.093.853l-13.283 7.664c-.117.067-.241.121-.363.182-.85-.489-1.708-.965-2.548-1.469-.98-.587-2.007-1.096-2.95-1.746 1.991-1.157 3.982-2.315 5.974-3.47z" id="a"/></defs><g fill="none" fill-rule="evenodd"><g stroke="#B1B1B1" stroke-width="4"><path d="M55.17 24.192c1.616-.936 3.234-1.868 4.85-2.801.38-.219.738-.462 1.015-.812.581-.735.52-1.443-.213-2.028-1.442-1.15-3.072-1.37-4.827-.94-.93.226-1.718.747-2.53 1.215-3.19 1.835-5.293 2.913-8.477 4.758-.181.105-.327.154-.525.04-1.756-1.021-3.516-2.034-5.33-3.082.548-.324 1.053-.63 1.564-.924 3.105-1.792 5.127-2.818 8.233-4.608.381-.22.73-.475 1.017-.813.602-.708.55-1.444-.183-2.026-1.633-1.3-3.457-1.436-5.366-.78-1.127.386-2.093 1.104-3.12 1.692-2.875 1.643-5.755 3.28-8.598 4.977-1.845 1.1-2.886 2.735-2.886 4.944 0 5.202.005 10.403-.004 15.605-.003 1.416-.223 2.801-.85 4.087-.976 2-2.656 2.752-4.817 2.126-2.433-.704-4.435-2.116-6.19-3.904a15.147 15.147 0 01-1.852-2.337c-.067-.102-.092-.277-.322-.192-1.302.481-2.558.193-3.769-.322-3.332-1.418-5.858-3.748-7.595-6.913-1.52-2.77-2.32-5.731-2.3-8.917.03-5.229-.022-10.457.024-15.686.016-1.906 1.093-3.283 2.588-4.364.099-.072.187-.073.298-.009 1.756 1.02 2.623 1.543 4.38 2.561l.98.6c-1.06.886-1.755 1.64-2.089 2.26a5.049 5.049 0 00-.624 2.428c.004 5.338 0 10.676.003 16.014.002 2.172 1.411 4.347 3.27 5.073 1.145.447 1.928.01 2.145-1.202.066-.362.099-.726.099-1.096-.006-5.174-.003-10.349-.005-15.523 0-2.014.977-3.492 2.534-4.656.124-.092.233-.151.403-.052 1.73 1.009 1.77.996 3.505 1.998l1.836 1.137c-.902.74-1.514 1.355-1.836 1.847a5.298 5.298 0 00-.891 2.968c.001 5.256-.003 10.512.002 15.768.002 2.328 1.415 4.507 3.386 5.246.974.366 1.652.038 1.965-.962.105-.338.158-.686.157-1.045-.003-5.215.007-10.43-.006-15.645-.006-2.26 1.015-3.947 2.903-5.066 3.634-2.155 7.3-4.255 10.976-6.338 1.588-.9 3.33-1.414 5.12-1.742 3.16-.578 6.272-.432 9.285.758 2.06.814 3.945 1.916 5.508 3.515.288.294.578.599.74.972.155.354.407.44.745.508 3.494.696 6.598 2.196 9.273 4.558.442.39.803.854 1.104 1.362.76 1.284.596 2.678-.44 3.753a4.92 4.92 0 01-1.094.853l-13.282 7.664c-.117.068-.242.122-.363.182-.85-.488-1.708-.964-2.549-1.468-.98-.588-.01-2.273-.952-2.924 1.991-1.157 1.985-1.138 3.977-2.292zm5.668 35.796c2.537 1.465 5.071 2.934 7.607 4.4.393.228.817.37 1.262.449.805.141 1.474-.513 1.538-1.458.17-2.512-1.002-4.269-3.085-5.514-1.308-.782-2.685-1.452-3.871-2.43-3.27-2.697-5.644-5.982-6.536-10.188-.412-1.943-.463-3.92-.02-5.877.245-1.078.746-2.027 1.701-2.653.844-.553 1.79-.686 2.781-.585 1.928.196 3.562 1.11 5.19 2.067 2.572 1.514 5.165 2.991 7.75 4.484.306.177.861.5 1.664.97v6.392a996.492 996.492 0 01-6.178-3.532c-1.651-.955-3.298-1.919-4.956-2.86a2.527 2.527 0 00-1.205-.354c-.707-.012-1.148.266-1.34.955-.308 1.108-.116 2.182.352 3.212.625 1.375 1.703 2.294 3 3.015 1.643.914 3.287 1.831 4.883 2.823 1.318.82 2.28 2.017 3.085 3.33 1.243 2.03 1.93 4.247 2.201 6.605.213 1.847.312 3.695-.108 5.522-.308 1.337-.941 2.473-2.307 3.02-.904.362-1.834.32-2.77.155-1.576-.28-2.936-1.049-4.292-1.841-1.695-.99-4.931-2.892-9.71-5.706v-6.333c1.17.672 2.269 1.299 3.364 1.932z"/><path d="M52.145 29.408c.841.504 1.699.98 2.55 1.468-1.313.944-2.308 2.115-2.655 3.74-.1.466-.133.94-.132 1.42.004 5.282.014 10.565-.006 15.848-.005 1.42-.335 2.778-1.048 4.025-.94 1.644-2.497 2.168-4.26 1.771-2.002-.45-3.706-1.5-5.251-2.802-3.317-2.794-5.112-6.437-5.82-10.663a34.758 34.758 0 01-.241-2.048 630.262 630.262 0 014.934 2.697c.107.06.345.19.714.39a2.61 2.61 0 000 .59c.264 1.81 1.1 3.263 2.71 4.2.467.272.956.516 1.537.414.417-.074.683-.325.87-.676.227-.43.303-.894.302-1.38-.004-5.257-.018-10.512.004-15.768.01-2.172 1.001-3.826 2.843-4.973.942.65 1.97 1.16 2.95 1.747z"/><path d="M35.283 29.711c-.005-.331.088-.384.371-.219 1.645.96 3.293 1.917 4.945 2.865.194.111.258.238.257.454-.007 1.909-.01 3.817 0 5.726.003.33-.073.373-.356.209-1.647-.958-3.3-1.907-4.953-2.853-.202-.116-.268-.265-.265-.497.012-.954.005-1.908.005-2.863 0-.94.008-1.881-.004-2.822z"/></g><g fill="#FFF"><path d="M55.17 24.192c1.616-.936 3.234-1.868 4.85-2.801.38-.219.738-.462 1.015-.812.581-.735.52-1.443-.213-2.028-1.442-1.15-3.072-1.37-4.827-.94-.93.226-1.718.747-2.53 1.215-3.19 1.835-5.293 2.913-8.477 4.758-.181.105-.327.154-.525.04-1.756-1.021-3.516-2.034-5.33-3.082.548-.324 1.053-.63 1.564-.924 3.105-1.792 5.127-2.818 8.233-4.608.381-.22.73-.475 1.017-.813.602-.708.55-1.444-.183-2.026-1.633-1.3-3.457-1.436-5.366-.78-1.127.386-2.093 1.104-3.12 1.692-2.875 1.643-5.755 3.28-8.598 4.977-1.845 1.1-2.886 2.735-2.886 4.944 0 5.202.005 10.403-.004 15.605-.003 1.416-.223 2.801-.85 4.087-.976 2-2.656 2.752-4.817 2.126-2.433-.704-4.435-2.116-6.19-3.904a15.147 15.147 0 01-1.852-2.337c-.067-.102-.092-.277-.322-.192-1.302.481-2.558.193-3.769-.322-3.332-1.418-5.858-3.748-7.595-6.913-1.52-2.77-2.32-5.731-2.301-8.917.032-5.229-.02-10.457.025-15.686.016-1.906 1.093-3.283 2.588-4.364.099-.072.187-.073.298-.009 1.756 1.02 3.515 2.036 5.272 3.054.032.019.051.06.088.106-.867.601-1.589 1.33-2.089 2.26a5.049 5.049 0 00-.624 2.43c.004 5.337 0 10.675.003 16.013.002 2.172 1.411 4.347 3.27 5.073 1.145.447 1.928.01 2.145-1.202.066-.362.099-.726.099-1.096-.006-5.174-.003-10.349-.005-15.523 0-2.014.977-3.492 2.534-4.656.124-.092.233-.151.403-.052 1.73 1.009 3.468 2.007 5.202 3.01.045.026.08.07.14.125-.725.518-1.354 1.11-1.837 1.847a5.298 5.298 0 00-.891 2.968c.001 5.256-.003 10.512.002 15.768.002 2.328 1.415 4.507 3.386 5.246.974.366 1.652.038 1.965-.962.105-.338.158-.686.157-1.045-.003-5.215.007-10.43-.006-15.645-.006-2.26 1.015-3.947 2.903-5.066 3.634-2.155 7.3-4.255 10.976-6.338 1.588-.9 3.33-1.414 5.12-1.742 3.16-.578 6.272-.432 9.285.758 2.06.814 3.945 1.916 5.508 3.515.288.294.578.599.74.972.155.354.407.44.745.508 3.494.696 6.598 2.196 9.273 4.558.442.39.803.854 1.104 1.362.76 1.284.596 2.678-.44 3.753a4.92 4.92 0 01-1.094.853l-13.282 7.664c-.117.068-.242.122-.363.182-.85-.488-1.708-.964-2.549-1.468-.98-.588-2.007-1.096-2.95-1.747 1.992-1.157 3.983-2.315 5.975-3.47zm5.668 35.796c2.537 1.465 5.071 2.934 7.607 4.4.393.228.817.37 1.262.449.805.141 1.474-.513 1.538-1.458.17-2.512-1.002-4.269-3.085-5.514-1.308-.782-2.685-1.452-3.871-2.43-3.27-2.697-5.644-5.982-6.536-10.188-.412-1.943-.463-3.92-.02-5.877.245-1.078.746-2.027 1.701-2.653.844-.553 1.79-.686 2.781-.585 1.928.196 3.562 1.11 5.19 2.067 2.572 1.514 5.165 2.991 7.75 4.484.306.177.861.5 1.664.97v6.392a996.492 996.492 0 01-6.178-3.532c-1.651-.955-3.298-1.919-4.956-2.86a2.527 2.527 0 00-1.205-.354c-.707-.012-1.148.266-1.34.955-.308 1.108-.116 2.182.352 3.212.625 1.375 1.703 2.294 3 3.015 1.643.914 3.287 1.831 4.883 2.823 1.318.82 2.28 2.017 3.085 3.33 1.243 2.03 1.93 4.247 2.201 6.605.213 1.847.312 3.695-.108 5.522-.308 1.337-.941 2.473-2.307 3.02-.904.362-1.834.32-2.77.155-1.576-.28-2.936-1.049-4.292-1.841-1.695-.99-4.931-2.892-9.71-5.706v-6.333c1.17.672 2.269 1.299 3.364 1.932z" stroke="#B1B1B1" stroke-width=".5"/><path d="M52.145 29.408c.841.504 1.699.98 2.55 1.468-1.313.944-2.308 2.115-2.655 3.74-.1.466-.133.94-.132 1.42.004 5.282.014 10.565-.006 15.848-.005 1.42-.335 2.778-1.048 4.025-.94 1.644-2.497 2.168-4.26 1.771-2.002-.45-3.706-1.5-5.251-2.802-3.317-2.794-5.112-6.437-5.82-10.663a34.758 34.758 0 01-.241-2.048 630.262 630.262 0 014.934 2.697c.107.06.345.19.714.39a2.61 2.61 0 000 .59c.264 1.81 1.1 3.263 2.71 4.2.467.272.956.516 1.537.414.417-.074.683-.325.87-.676.227-.43.303-.894.302-1.38-.004-5.257-.018-10.512.004-15.768.01-2.172 1.001-3.826 2.843-4.973.942.65 1.97 1.16 2.95 1.747z" stroke="#B1B1B1" stroke-width=".5"/><path d="M35.283 29.711c-.005-.331.088-.384.371-.219 1.645.96 3.293 1.917 4.945 2.865.194.111.258.238.257.454-.007 1.909-.01 3.817 0 5.726.003.33-.073.373-.356.209-1.647-.958-3.3-1.907-4.953-2.853-.202-.116-.268-.265-.265-.497.012-.954.005-1.908.005-2.863 0-.94.008-1.881-.004-2.822z"/></g><g transform="translate(2.094 2.131)"><mask id="b" fill="#fff"><use xlink:href="#a"/></mask><use fill="#FFF" xlink:href="#a"/><path d="M21.273 16.404c-.28 11.195-.28 17.05 0 17.566.51.936-2.236-1.001-2.47 0-.177.751-1.682-6.135-1.672-5.101.006.595 1.036-15.083.503-14.32-.11.156 2.428-2.695 2.796-4.404.24-1.121-2.296-2.674-3.299-3.087-3.889-1.599-6.774-3.25-10.197-5.675C5.724.526 3.94-.867 2.568-.687 1.255-.516.335 1.183-.094 2.315-.972 4.63-.73 12.76-1.078 13.87c-.246.784-.265 7.237.984 11.66 1.31 4.637 3.907 7.248 4.349 7.917.495.749 9.361 3.946 9.49 4.27.475 1.19 7.047 5.622 7.528 5.831 3.633 1.583 6.999-4.506 7.133-4.172.563 1.398-.32-20.257 0-20.257.597 0 1.763-.954 3.5-2.862l8.747-5.045 3.377-1.585 2.876.902.63 1.34-12.014 6.408 7.372 4.05 11.012-5.922h3.17l1.525 1.22-11.695 7.245 7 4 10.043-5.655 4.302-2.547 1.024-3.043-1.024-2.575-4.302-3.18-3.947-1.724-2.27-.52-2.404-2.567-4.922-2.422-3.087-.993-7.507.386-4.29 1.609-10.158 5.573-4.09 5.193z" fill="#E4E4E4" mask="url(#b)"/></g><path d="M56 31l-7-4m-15-9l-7-4" stroke="#B1B1B1" stroke-width="2"/></g></svg>